<svg xmlns="http://www.w3.org/2000/svg" viewBox="0 0 132.81428 120">
    <path d="M67.14111,104.33242c-.2742.02123-.54147.02306-.81556.0182a1.939,1.939,0,0,1-2.17924-2.1707,1.73834,1.73834,0,0,1,1.90444-1.87731,6.96729,6.96729,0,0,1,1.15818.13767l-.06782,3.89214m1.35222-4.24778-2.34029-.041c-1.47965-.02569-2.67173.64492-2.70184,2.37265-.02849,1.636,1.16877,2.1523,2.53778,2.17615l2.42506.04286.0036-.222-.63675-.12211.06749-3.88549.64111-.09966Z"
          style="fill:#ddd;fill-rule:evenodd"/>
    <path d="M67.14111,104.33242c-.2742.02123-.54147.02306-.81556.0182a1.939,1.939,0,0,1-2.17924-2.1707,1.73834,1.73834,0,0,1,1.90444-1.87731,6.96729,6.96729,0,0,1,1.15818.13767l-.06782,3.89214m1.35222-4.24778-2.34029-.041c-1.47965-.02569-2.67173.64492-2.70184,2.37265-.02849,1.636,1.16877,2.1523,2.53778,2.17615l2.42506.04286.0036-.222-.63675-.12211.06749-3.88549.64111-.09966Z"
          style="fill:#ddd"/>
    <path d="M67.14111,104.33242c-.2742.02123-.54147.02306-.81556.0182a1.939,1.939,0,0,1-2.17924-2.1707,1.73834,1.73834,0,0,1,1.90444-1.87731,6.96729,6.96729,0,0,1,1.15818.13767Zm1.35222-4.24778-2.34029-.041c-1.47965-.02569-2.67173.64492-2.70184,2.37265-.02849,1.636,1.16877,2.1523,2.53778,2.17615l2.42506.04286.0036-.222-.63675-.12211.06749-3.88549.64111-.09966Z"
          style="fill:#ddd"/>
    <path d="M60.88859,103.89291l-1.43035-.17589-.0966-.65543-.20079-.02486-.03174,1.00777,2.98319.36635.02708-.22-.62084-.1876.47386-3.85757.6476-.03235.02691-.21974L59.37958,99.49l-.40022,1.06767.23282.02849.34556-.67361,1.79246.22-.217,1.767L59.936,101.753l-.05534-.51333-.19415-.02366a7.42613,7.42613,0,0,1-.16025,1.30764l.19409.02366.18255-.47026,1.19071.14639-.20495,1.6695"
          style="fill:#ddd"/>
    <path d="M60.88859,103.89291l-1.43035-.17589-.0966-.65543-.20079-.02486-.03174,1.00777,2.98319.36635.02708-.22-.62084-.1876.47386-3.85757.6476-.03235.02691-.21974L59.37958,99.49l-.40022,1.06767.23282.02849.34556-.67361,1.79246.22-.217,1.767L59.936,101.753l-.05534-.51333-.19415-.02366a7.42613,7.42613,0,0,1-.16025,1.30764l.19409.02366.18255-.47026,1.19071.14639Z"
          style="fill:#ddd"/>
    <path d="M58.35342,99.56084l.04605-.21734-2.00266-.42515-.04615.21692.69124.26019-.82021,3.85818a4.15832,4.15832,0,0,1-.49631-.07863.96171.96171,0,0,1-.82708-1.189c.06755-.50542.35644-1.14388,1.23018-.9583a1.68821,1.68821,0,0,1,.30408.10453l.03231-.02667.03952-.18478a2.09179,2.09179,0,0,0-.423-.14294,1.49848,1.49848,0,0,0-1.82225,1.08179q-.01257.04927-.02177.09933c-.18836.88691.46705,1.25263,1.27712,1.42444l1.9382.412.04628-.21652-.64-.24949.80806-3.80138.68641.03276"
          style="fill:#ddd"/>
    <path d="M58.35342,99.56084l.04605-.21734-2.00266-.42515-.04615.21692.69124.26019-.82021,3.85818a4.15832,4.15832,0,0,1-.49631-.07863.96171.96171,0,0,1-.82708-1.189c.06755-.50542.35644-1.14388,1.23018-.9583a1.68821,1.68821,0,0,1,.30408.10453l.03231-.02667.03952-.18478a2.09179,2.09179,0,0,0-.423-.14294,1.49848,1.49848,0,0,0-1.82225,1.08179q-.01257.04927-.02177.09933c-.18836.88691.46705,1.25263,1.27712,1.42444l1.9382.412.04628-.21652-.64-.24949.80806-3.80138Z"
          style="fill:#ddd"/>
    <path d="M51.18125,99.19249l-.08833-1.46471.6398.10351.07223-.21-1.78133-.61334-.07216.20945.488.28567.28974,4.66464.31438.10816,3.01414-3.527.56021.07581.07239-.20966-1.54152-.5307-.07206.20946.56815.313L52.74726,99.732l-1.566-.53938m.13644,2.24731-.113-1.89413,1.313.45186Z"
          style="fill:#ddd;fill-rule:evenodd"/>
    <path d="M51.18125,99.19249l-.08833-1.46471.6398.10351.07223-.21-1.78133-.61334-.07216.20945.488.28567.28974,4.66464.31438.10816,3.01414-3.527.56021.07581.07239-.20966-1.54152-.5307-.07206.20946.56815.313L52.74726,99.732l-1.566-.53938m.13644,2.24731-.113-1.89413,1.313.45186Z"
          style="fill:#ddd"/>
    <path d="M51.18125,99.19249l-.08833-1.46471.6398.10351.07223-.21-1.78133-.61334-.07216.20945.488.28567.28974,4.66464.31438.10816,3.01414-3.527.56021.07581.07239-.20966-1.54152-.5307-.07206.20946.56815.313L52.74726,99.732Zm.13644,2.24731-.113-1.89413,1.313.45186Z"
          style="fill:#ddd"/>
    <path d="M46.5,100.248a1.46468,1.46468,0,0,1-.33758-.10753A1.008,1.008,0,0,1,45.6141,98.647c.37123-.834.73853-.713,1.47143-.38674.08889.03941.18436.08167.24729.11685L46.5,100.248m2.84409-3.16615.09018-.20279-1.78087-.7927-.09018.20258.53876.3611-.64976,1.45923c-.22645-.10089-.44379-.19-.64187-.257a21.95024,21.95024,0,0,0-.51676-2.22141,1.70409,1.70409,0,0,0-.34084-.30889l-.40214-.31457-.13927.152a2.59593,2.59593,0,0,1,.49244,1.21846l.312,1.36626a1.69857,1.69857,0,0,0-1.29666.89334,1.1258,1.1258,0,0,0,.71061,1.52981l1.95356.86955.09018-.20259-.56831-.37444,1.58031-3.55008Z"
          style="fill:#ddd;fill-rule:evenodd"/>
    <path d="M46.5,100.248a1.46468,1.46468,0,0,1-.33758-.10753A1.008,1.008,0,0,1,45.6141,98.647c.37123-.834.73853-.713,1.47143-.38674.08889.03941.18436.08167.24729.11685L46.5,100.248m2.84409-3.16615.09018-.20279-1.78087-.7927-.09018.20258.53876.3611-.64976,1.45923c-.22645-.10089-.44379-.19-.64187-.257a21.95024,21.95024,0,0,0-.51676-2.22141,1.70409,1.70409,0,0,0-.34084-.30889l-.40214-.31457-.13927.152a2.59593,2.59593,0,0,1,.49244,1.21846l.312,1.36626a1.69857,1.69857,0,0,0-1.29666.89334,1.1258,1.1258,0,0,0,.71061,1.52981l1.95356.86955.09018-.20259-.56831-.37444,1.58031-3.55008Z"
          style="fill:#ddd"/>
    <path d="M46.5,100.248a1.46468,1.46468,0,0,1-.33758-.10753A1.008,1.008,0,0,1,45.6141,98.647c.37123-.834.73853-.713,1.47143-.38674.08889.03941.18436.08167.24729.11685Zm2.84409-3.16615.09018-.20279-1.78087-.7927-.09018.20258.53876.3611-.64976,1.45923c-.22645-.10089-.44379-.19-.64187-.257a21.95024,21.95024,0,0,0-.51676-2.22141,1.70409,1.70409,0,0,0-.34084-.30889l-.40214-.31457-.13927.152a2.59593,2.59593,0,0,1,.49244,1.21846l.312,1.36626a1.69857,1.69857,0,0,0-1.29666.89334,1.1258,1.1258,0,0,0,.71061,1.52981l1.95356.86955.09018-.20259-.56831-.37444,1.58031-3.55008Z"
          style="fill:#ddd"/>
    <path d="M44.03536,94.60444l.11061-.19206L42.3392,93.369l-.11084.19185.57135.45811L40.873,97.356l-.71725-.41362c-.20889-.1209-.40564-.2497-.57968-.36511l.22651-.705-.20928-.12069-.50645.99488,3.6983,2.1353.67583-.897-.19753-.114-.565.50946c-.17591-.08653-.37444-.18641-.572-.30022l-.7-.40393,1.92666-3.33777.68222.26626"
          style="fill:#ddd"/>
    <path d="M44.03536,94.60444l.11061-.19206L42.3392,93.369l-.11084.19185.57135.45811L40.873,97.356l-.71725-.41362c-.20889-.1209-.40564-.2497-.57968-.36511l.22651-.705-.20928-.12069-.50645.99488,3.6983,2.1353.67583-.897-.19753-.114-.565.50946c-.17591-.08653-.37444-.18641-.572-.30022l-.7-.40393,1.92666-3.33777Z"
          style="fill:#ddd"/>
    <polyline
            points="33.473 92.526 33.342 92.704 34.471 93.524 37.577 91.647 36.777 95.199 37.927 96.036 38.057 95.856 37.562 95.359 40.163 92.446 40.677 92.681 40.808 92.502 39.562 91.598 39.432 91.778 39.858 92.223 37.503 94.898 37.496 94.908 37.486 94.9 38.414 90.804 38.351 90.759 34.707 92.979 34.7 92.989 34.689 92.982 36.556 89.824 37.138 90.11 37.268 89.931 35.743 88.823 35.613 89.003 36.039 89.449 34.071 92.823 33.473 92.526"
            style="fill:#ddd"/>
    <polygon
            points="33.473 92.526 33.342 92.704 34.471 93.524 37.577 91.647 36.777 95.199 37.927 96.036 38.057 95.856 37.562 95.359 40.163 92.446 40.677 92.681 40.808 92.502 39.562 91.598 39.432 91.778 39.858 92.223 37.503 94.898 37.496 94.908 37.486 94.9 38.414 90.804 38.351 90.759 34.707 92.979 34.7 92.989 34.689 92.982 36.556 89.824 37.138 90.11 37.268 89.931 35.743 88.823 35.613 89.003 36.039 89.449 34.071 92.823 33.473 92.526"
            style="fill:#ddd"/>
    <path d="M31.34876,90.36056,30.33,89.342l.32728-.5766-.14292-.14293-.64556.77451,2.12549,2.12555.15643-.15687-.37321-.53031,2.748-2.74787.53016.3732.15667-.15648-2.34181-2.34171-.973.59437.166.16639.68681-.31862,1.27707,1.27756-1.25873,1.25811-.85285-.85233.272-.43812-.13825-.13827a7.41768,7.41768,0,0,1-.93133.93138l.13831.13829.43354-.25837.848.8483-1.18941,1.18935"
          style="fill:#ddd"/>
    <path d="M31.34876,90.36056,30.33,89.342l.32728-.5766-.14292-.14293-.64556.77451,2.12549,2.12555.15643-.15687-.37321-.53031,2.748-2.74787.53016.3732.15667-.15648-2.34181-2.34171-.973.59437.166.16639.68681-.31862,1.27707,1.27756-1.25873,1.25811-.85285-.85233.272-.43812-.13825-.13827a7.41768,7.41768,0,0,1-.93133.93138l.13831.13829.43354-.25837.848.8483Z"
          style="fill:#ddd"/>
    <path d="M31.93807,85.515l.16954-.14212-1.081-1.28863-.16993.14274.34263.58064-2.61752,2.196c.13859-1.0525.60405-4.41334.69784-5.06191L29.07,81.69178l-3.26171,2.73694-.4957-.41809-.16954.14253,1.06444,1.2682.16973-.14212-.3257-.561,2.46238-2.06616-.6595,4.73216.76686.9138.16981-.14247-.326-.56062,2.97723-2.498.4957.41809"
          style="fill:#ddd"/>
    <path d="M31.93807,85.515l.16954-.14212-1.081-1.28863-.16993.14274.34263.58064-2.61752,2.196c.13859-1.0525.60405-4.41334.69784-5.06191L29.07,81.69178l-3.26171,2.73694-.4957-.41809-.16954.14253,1.06444,1.2682.16973-.14212-.3257-.561,2.46238-2.06616-.6595,4.73216.76686.9138.16981-.14247-.326-.56062,2.97723-2.498Z"
          style="fill:#ddd"/>
    <path d="M27.40975,79.8785l.18367-.12412L26.427,78.02482l-.18395.12433.31275.6615-3.19471,2.15491-.4631-.686c-.13459-.20015-.25505-.40211-.36111-.582l.51287-.53473-.135-.2-.89159.67181,2.38778,3.54058,1.001-.50986-.12745-.18924-.73139.21027c-.12023-.15508-.25493-.332-.38249-.52079l-.45222-.6702,3.1949-2.15492.49649.538"
          style="fill:#ddd"/>
    <path d="M27.40975,79.8785l.18367-.12412L26.427,78.02482l-.18395.12433.31275.6615-3.19471,2.15491-.4631-.686c-.13459-.20015-.25505-.40211-.36111-.582l.51287-.53473-.135-.2-.89159.67181,2.38778,3.54058,1.001-.50986-.12745-.18924-.73139.21027c-.12023-.15508-.25493-.332-.38249-.52079l-.45222-.6702,3.1949-2.15492Z"
          style="fill:#ddd"/>
    <path d="M18.85523,73.622a2.20045,2.20045,0,0,0,3.13788,1.16833,2.20693,2.20693,0,0,0,1.16778-3.173,2.151,2.151,0,0,0-2.944-1.27853A2.3044,2.3044,0,0,0,18.85526,73.622m2.59191.64957a1.61334,1.61334,0,0,1-2.35369-.72216,2.00461,2.00461,0,0,1,1.27748-2.5308l.04992-.0157c.97231-.41284,2.02555-.43487,2.49931.6813.443,1.044-.1466,2.0243-1.47305,2.58736Z"
          style="fill:#ddd;fill-rule:evenodd"/>
    <path d="M18.85523,73.622a2.20045,2.20045,0,0,0,3.13788,1.16833,2.20693,2.20693,0,0,0,1.16778-3.173,2.151,2.151,0,0,0-2.944-1.27853A2.3044,2.3044,0,0,0,18.85526,73.622m2.59191.64957a1.61334,1.61334,0,0,1-2.35369-.72216,2.00461,2.00461,0,0,1,1.27748-2.5308l.04992-.0157c.97231-.41284,2.02555-.43487,2.49931.6813.443,1.044-.1466,2.0243-1.47305,2.58736Z"
          style="fill:#ddd"/>
    <path d="M18.85523,73.622a2.20045,2.20045,0,0,0,3.13788,1.16833,2.20693,2.20693,0,0,0,1.16778-3.173,2.151,2.151,0,0,0-2.944-1.27853,2.30445,2.30445,0,0,0-1.3617,3.28323Zm2.59191.64957a1.61334,1.61334,0,0,1-2.35369-.72216,2.00462,2.00462,0,0,1,1.27749-2.5308l.04991-.0157c.97232-.41284,2.02556-.43487,2.49932.6813C23.36323,72.7282,22.77359,73.70851,21.44714,74.27157Z"
          style="fill:#ddd"/>
    <path d="M19.39079,66.64251l-.06018-.18639a7.46285,7.46285,0,0,1-1.25283.40721l.06052.1858.50323-.03333.405,1.24638-1.59983.52-.45555-1.40142.59666-.35825-.06845-.21106-.968.39667.96317,2.96411.21092-.06874-.11222-.70375L21.3092,68.199l.32289.63521.211-.06853-.63272-1.94708-.211.06834.11235.70435-1.755.57011L18.94977,66.909l.441-.26646"
          style="fill:#ddd"/>
    <path d="M19.39079,66.64251l-.06018-.18639a7.46285,7.46285,0,0,1-1.25283.40721l.06052.1858.50323-.03333.405,1.24638-1.59983.52-.45555-1.40142.59666-.35825-.06845-.21106-.968.39667.96317,2.96411.21092-.06874-.11222-.70375L21.3092,68.199l.32289.63521.211-.06853-.63272-1.94708-.211.06834.11235.70435-1.755.57011L18.94977,66.909Z"
          style="fill:#ddd"/>
    <polyline
            points="17.589 61.558 17.14 59.016 18.989 58.689 19.21 59.3 19.428 59.261 19.096 57.373 18.877 57.412 18.879 58.06 15.051 58.734 14.831 58.126 14.613 58.163 14.946 60.051 15.164 60.013 15.162 59.364 16.819 59.072 17.268 61.614 15.611 61.907 15.39 61.297 15.172 61.336 15.504 63.223 15.723 63.184 15.722 62.536 19.549 61.861 19.769 62.471 19.988 62.432 19.654 60.544 19.436 60.583 19.438 61.232 17.589 61.558"
            style="fill:#ddd"/>
    <polygon
            points="17.589 61.558 17.14 59.016 18.989 58.689 19.21 59.3 19.428 59.261 19.096 57.373 18.877 57.412 18.879 58.06 15.051 58.734 14.831 58.126 14.613 58.163 14.946 60.051 15.164 60.013 15.162 59.364 16.819 59.072 17.268 61.614 15.611 61.907 15.39 61.297 15.172 61.336 15.504 63.223 15.723 63.184 15.722 62.536 19.549 61.861 19.769 62.471 19.988 62.432 19.654 60.544 19.436 60.583 19.438 61.232 17.589 61.558"
            style="fill:#ddd"/>
    <path d="M14.87463,55.69933l-.1007-1.43742.62534-.22056-.01419-.20157-.99528.16111.20962,2.99836.22122-.01577.06582-.64471,3.87666-.2713.15548.62953.22106-.01534-.23106-3.30388-1.12452-.18943.01643.23412.72722.21064.126,1.80134-1.7758.12432-.08393-1.2029.49243-.152-.01351-.1953a7.36865,7.36865,0,0,1-1.314.09159l.0135.19529.49667.08938.08354,1.19723-1.678.11725"
          style="fill:#ddd"/>
    <path d="M14.87463,55.69933l-.1007-1.43742.62539-.22056-.01424-.20156-.99522.16111.20962,2.99836.22123-.01577.06575-.64471,3.87666-.2713.15542.62955.22106-.01536-.231-3.30389-1.12444-.18941.01644.2341.72721.21064.126,1.80134-1.7758.12432-.084-1.20289.49249-.152-.01357-.19528a7.37049,7.37049,0,0,1-1.314.09157l.0135.19528.49677.08938.08354,1.19724Z"
          style="fill:#ddd"/>
    <path d="M17.28946,49.404,18.6554,48.867l.09981.64067.22161.004.03277-1.884-.22162-.00383-.12046.55212-4.34718,1.71723-.00567.33235,4.286,1.77687.10111.556.22173.004.02837-1.62969-.22156-.004-.1221.63705-1.3476-.506.02877-1.65578m-2.09453.824,1.7663-.69263-.024,1.38849Z"
          style="fill:#ddd;fill-rule:evenodd"/>
    <path d="M17.28946,49.404,18.6554,48.867l.09981.64067.22161.004.03277-1.884-.22162-.00383-.12046.55212-4.34718,1.71723-.00567.33235,4.286,1.77687.10111.556.22173.004.02837-1.62969-.22156-.004-.1221.63705-1.3476-.506.02877-1.65578m-2.09453.824,1.7663-.69263-.024,1.38849Z"
          style="fill:#ddd"/>
    <path d="M17.28951,49.404l1.36589-.537.09981.64068.22161.004.03277-1.884-.22162-.00383-.1204.55211-4.34724,1.71723-.00562.33236,4.286,1.77686.10121.556.22168.004.02831-1.62967-.2215-.00405-.1221.637-1.3476-.506Zm-2.09452.824,1.76629-.69263-.02409,1.3885Z"
          style="fill:#ddd"/>
    <polyline
            points="19.166 46.921 19.728 43.73 18.52 43.22 18.482 43.438 19.283 43.963 18.996 45.594 15.232 44.93 15.234 44.282 15.016 44.243 14.683 46.131 14.901 46.169 15.122 45.559 18.949 46.234 18.947 46.882 19.166 46.921"
            style="fill:#ddd"/>
    <polygon
            points="19.166 46.921 19.728 43.73 18.52 43.22 18.482 43.438 19.283 43.963 18.996 45.594 15.232 44.93 15.234 44.282 15.016 44.243 14.683 46.131 14.901 46.169 15.122 45.559 18.949 46.234 18.947 46.882 19.166 46.921"
            style="fill:#ddd"/>
    <path d="M19.76771,42.31556l.215.05357.50486-2.02432-.215-.05333-.28269.67523-3.73905-.9324.20033-.8032c.05843-.23412.12778-.45872.191-.65786l.74016.02325.05831-.23431-1.09609-.21271-1.033,4.14364,1.04865.40252.05528-.22158L15.77,42.07135c.03444-.19307.07543-.41121.13093-.63259l.19522-.78462,3.73917.9324-.06754.729"
          style="fill:#ddd"/>
    <path d="M19.76771,42.31556l.215.05357.50486-2.02432-.215-.05333-.28269.67523-3.73905-.9324.20033-.8032c.05843-.23412.12778-.45872.191-.65786l.74016.02325.05831-.23431-1.09609-.21271-1.033,4.14364,1.04865.40252.05528-.22158L15.77,42.07135c.03444-.19307.07543-.41121.13093-.63259l.19522-.78462,3.73917.9324Z"
          style="fill:#ddd"/>
    <polyline
            points="19.252 36.734 20.092 34.293 21.868 34.904 21.764 35.544 21.974 35.617 22.599 33.804 22.389 33.732 22.076 34.3 18.401 33.036 18.504 32.396 18.296 32.323 17.671 34.136 17.881 34.208 18.193 33.64 19.784 34.187 18.943 36.629 17.353 36.081 17.457 35.44 17.247 35.368 16.622 37.181 16.832 37.253 17.146 36.684 20.82 37.95 20.717 38.59 20.926 38.662 21.55 36.85 21.34 36.778 21.028 37.346 19.252 36.734"
            style="fill:#ddd"/>
    <polygon
            points="19.252 36.734 20.092 34.293 21.868 34.904 21.764 35.544 21.974 35.617 22.599 33.804 22.389 33.732 22.076 34.3 18.401 33.036 18.504 32.396 18.296 32.323 17.671 34.136 17.881 34.208 18.193 33.64 19.784 34.187 18.943 36.629 17.353 36.081 17.457 35.44 17.247 35.368 16.622 37.181 16.832 37.253 17.146 36.684 20.82 37.95 20.717 38.59 20.926 38.662 21.55 36.85 21.34 36.778 21.028 37.346 19.252 36.734"
            style="fill:#ddd"/>
    <path d="M22.95867,29.86682a1.18724,1.18724,0,0,1-.54667-1.11354c.70038-.37889,1.41567-.75634,2.10928-1.12366a2.08151,2.08151,0,0,1,.07036,1.50858,1.137,1.137,0,0,1-1.63294.72862m-1.026-1.54841a1.07806,1.07806,0,0,1-.74765-.10048.58843.58843,0,0,1-.26395-.86c.17613-.30487.55829-.24967.82381-.09666a1.04533,1.04533,0,0,1,.52385.95749Zm.30211.46778a1.59674,1.59674,0,0,0,.63959,1.70936c.66064.3813,1.35324.08112,1.86835-.8109a2.44909,2.44909,0,0,0-.04245-2.1173,3.53729,3.53729,0,0,1,1.30421-.12008l.4255-.95889-.16943-.09805c-.33994.79756-.99495.27617-1.83452.68737a2.23337,2.23337,0,0,0-.64707-.61437,1.14085,1.14085,0,0,0-1.20354-.0926,4.20223,4.20223,0,0,0-.19016.59032l.11034.056a.57967.57967,0,0,1,.50846-.43666,1.35091,1.35091,0,0,1,1.24685.59214c-.2286.10877-.45714.21778-.67778.33889l-1.14788.63222a1.1675,1.1675,0,0,0-.50025-1.20735.851.851,0,0,0-1.13341.29416,1.01245,1.01245,0,0,0,.38019,1.4542,1.29705,1.29705,0,0,0,1.063.10157Z"
          style="fill:#ddd;fill-rule:evenodd"/>
    <path d="M22.95867,29.86682a1.18724,1.18724,0,0,1-.54667-1.11354c.70038-.37889,1.41567-.75634,2.10928-1.12366a2.08151,2.08151,0,0,1,.07036,1.50858,1.137,1.137,0,0,1-1.63294.72862m-1.026-1.54841a1.07806,1.07806,0,0,1-.74765-.10048.58843.58843,0,0,1-.26395-.86c.17613-.30487.55829-.24967.82381-.09666a1.04533,1.04533,0,0,1,.52385.95749Zm.30211.46778a1.59674,1.59674,0,0,0,.63959,1.70936c.66064.3813,1.35324.08112,1.86835-.8109a2.44909,2.44909,0,0,0-.04245-2.1173,3.53729,3.53729,0,0,1,1.30421-.12008l.4255-.95889-.16943-.09805c-.33994.79756-.99495.27617-1.83452.68737a2.23337,2.23337,0,0,0-.64707-.61437,1.14085,1.14085,0,0,0-1.20354-.0926,4.20223,4.20223,0,0,0-.19016.59032l.11034.056a.57967.57967,0,0,1,.50846-.43666,1.35091,1.35091,0,0,1,1.24685.59214c-.2286.10877-.45714.21778-.67778.33889l-1.14788.63222a1.1675,1.1675,0,0,0-.50025-1.20735.851.851,0,0,0-1.13341.29416,1.01245,1.01245,0,0,0,.38019,1.4542,1.29705,1.29705,0,0,0,1.063.10157Z"
          style="fill:#ddd"/>
    <path d="M22.95867,29.86682a1.18724,1.18724,0,0,1-.54667-1.11354c.70038-.37889,1.41567-.75634,2.10928-1.12366a2.08151,2.08151,0,0,1,.07036,1.50858,1.137,1.137,0,0,1-1.633.72862Zm-1.026-1.54841a1.07809,1.07809,0,0,1-.74766-.10048.58839.58839,0,0,1-.26394-.86c.17613-.30487.55829-.24967.82381-.09666a1.04535,1.04535,0,0,1,.52385.95749Zm.30211.46778a1.59675,1.59675,0,0,0,.63962,1.70936c.66064.3813,1.35324.08112,1.86835-.8109a2.44909,2.44909,0,0,0-.04245-2.1173,3.53729,3.53729,0,0,1,1.30421-.12008l.4255-.95889-.16943-.09805c-.33994.79756-.99495.27617-1.83452.68737a2.23337,2.23337,0,0,0-.64707-.61437,1.14085,1.14085,0,0,0-1.20354-.0926,4.20223,4.20223,0,0,0-.19016.59032l.11034.056a.57967.57967,0,0,1,.50846-.43666,1.35091,1.35091,0,0,1,1.24685.59214c-.2286.10877-.45714.21778-.67778.33889l-1.14788.63222a1.1675,1.1675,0,0,0-.50025-1.20735.851.851,0,0,0-1.13341.29416,1.01245,1.01245,0,0,0,.38019,1.4542,1.29705,1.29705,0,0,0,1.063.10157Z"
          style="fill:#ddd"/>
    <polyline
            points="26.928 22.07 28.517 20.036 29.997 21.192 29.691 21.763 29.866 21.9 31.046 20.39 30.871 20.253 30.39 20.689 27.328 18.296 27.633 17.724 27.459 17.588 26.279 19.098 26.453 19.234 26.934 18.799 28.26 19.834 26.671 21.869 25.346 20.833 25.651 20.262 25.477 20.126 24.297 21.636 24.471 21.772 24.951 21.337 28.014 23.73 27.708 24.301 27.882 24.438 29.062 22.928 28.888 22.791 28.408 23.227 26.928 22.07"
            style="fill:#ddd"/>
    <polygon
            points="26.928 22.07 28.517 20.036 29.997 21.192 29.691 21.763 29.866 21.9 31.046 20.39 30.871 20.253 30.39 20.689 27.328 18.296 27.633 17.724 27.459 17.588 26.279 19.098 26.453 19.234 26.934 18.799 28.26 19.834 26.671 21.869 25.346 20.833 25.651 20.262 25.477 20.126 24.297 21.636 24.471 21.772 24.951 21.337 28.014 23.73 27.708 24.301 27.882 24.438 29.062 22.928 28.888 22.791 28.408 23.227 26.928 22.07"
            style="fill:#ddd"/>
    <path d="M32.147,13.26544l-.15688-.15684-1.27222,1.27254.15689.15667.53-.37333,1.58138,1.5814a2.09277,2.09277,0,0,1,.69159,1.051,1.55251,1.55251,0,0,1-.46086,1.18035c-.70515.70541-1.42922.52555-2.10212-.17544L29.441,16.12831l.37343-.53029-.15677-.15667L28.30222,16.7968l.15677.15676L28.9893,16.58l1.84414,1.84429a1.65628,1.65628,0,0,0,2.6-.15645,1.83814,1.83814,0,0,0-.11555-2.92761l-1.54417-1.54479.37326-.53"
          style="fill:#ddd"/>
    <path d="M32.147,13.26544l-.15688-.15684-1.27222,1.27254.15689.15667.53-.37333,1.58138,1.5814a2.09277,2.09277,0,0,1,.69159,1.051,1.55251,1.55251,0,0,1-.46086,1.18035c-.70515.70541-1.42922.52555-2.10212-.17544L29.441,16.12831l.37343-.53029-.15677-.15667L28.30222,16.7968l.15677.15676L28.9893,16.58l1.84414,1.84429a1.65628,1.65628,0,0,0,2.6-.15645,1.83814,1.83814,0,0,0-.11555-2.92761l-1.54417-1.54479Z"
          style="fill:#ddd"/>
    <polyline
            points="37.807 8.92 37.673 8.743 36.559 9.583 37.448 13.102 34.284 11.298 33.149 12.153 33.282 12.33 33.901 12.003 35.928 15.342 35.551 15.764 35.686 15.941 36.914 15.014 36.781 14.838 36.23 15.114 34.36 12.081 34.352 12.071 34.363 12.063 38.009 14.149 38.071 14.102 37.013 9.968 37.004 9.958 37.016 9.95 39.489 12.658 39.046 13.131 39.179 13.308 40.683 12.174 40.55 11.998 39.999 12.273 37.348 9.406 37.807 8.92"
            style="fill:#ddd"/>
    <polygon
            points="37.807 8.92 37.673 8.743 36.559 9.583 37.448 13.102 34.284 11.298 33.149 12.153 33.282 12.33 33.901 12.003 35.928 15.342 35.551 15.764 35.686 15.941 36.914 15.014 36.781 14.838 36.23 15.114 34.36 12.081 34.352 12.071 34.363 12.063 38.009 14.149 38.071 14.102 37.013 9.968 37.004 9.958 37.016 9.95 39.489 12.658 39.046 13.131 39.179 13.308 40.683 12.174 40.55 11.998 39.999 12.273 37.348 9.406 37.807 8.92"
            style="fill:#ddd"/>
    <path d="M43.1141,8.903l1.1481.91412-.50515.4068.10751.19388,1.64766-.91351-.10712-.19369-.53843.1716-3.66084-2.9061-.29067.16131.60422,4.60012-.43079.36555.10735.19388,1.42555-.79-.10735-.19386-.61261.21264-.23569-1.42L43.11415,8.903M41.35321,7.50111l1.48315,1.18311-1.21444.67321Z"
          style="fill:#ddd;fill-rule:evenodd"/>
    <path d="M43.1141,8.903l1.1481.91412-.50515.4068.10751.19388,1.64766-.91351-.10712-.19369-.53843.1716-3.66084-2.9061-.29067.16131.60422,4.60012-.43079.36555.10735.19388,1.42555-.79-.10735-.19386-.61261.21264-.23569-1.42L43.11415,8.903M41.35321,7.50111l1.48315,1.18311-1.21444.67321Z"
          style="fill:#ddd"/>
    <path d="M43.1141,8.903l1.1481.91412-.50515.4068.10751.19388,1.64766-.91351-.10712-.19369-.53843.1716-3.66084-2.9061-.29067.16131.60422,4.60012-.43079.36555.10735.19388,1.42555-.79-.10735-.19386-.61261.21264-.23569-1.42ZM41.35321,7.50111l1.48315,1.18311-1.21444.67321Z"
          style="fill:#ddd"/>
    <path d="M45.96753,9.07124l.08653.20405,1.54855-.65716L47.51595,8.414l-.65556.15785-1.335-3.14518c.96579.44015,4.04376,1.86789,4.63695,2.14726l.3-.12734-1.66386-3.9192.54487-.35183L49.257,2.9714l-1.52436.64719.08667.20414.63124-.14787,1.256,2.95917L45.37414,4.61959,44.276,5.08571l.08652.20405.63159-.14747,1.51821,3.57725-.54478.35172"
          style="fill:#ddd"/>
    <path d="M45.96753,9.07124l.08653.20405,1.54855-.65716L47.51595,8.414l-.65556.15785-1.335-3.14518c.96579.44015,4.04376,1.86789,4.63695,2.14726l.3-.12734-1.66386-3.9192.54487-.35183L49.257,2.9714l-1.52436.64719.08667.20414.63124-.14787,1.256,2.95917L45.37414,4.61959,44.276,5.08571l.08652.20405.63159-.14747,1.51821,3.57725Z"
          style="fill:#ddd"/>
    <path d="M56.11418,1.21952a9.24494,9.24494,0,0,0-.96071.05747A1.301,1.301,0,0,0,53.969,2.68482q.00494.05722.0149.11386c.34427,1.62012,2.39974.81656,2.63159,1.90718a.83.83,0,0,1-.7561,1.02072,1.19464,1.19464,0,0,1-.99871-.21431,2.8657,2.8657,0,0,1-.38508-.74492l-.19933.09595L54.57136,5.907a2.51871,2.51871,0,0,0,1.37778.05392,1.353,1.353,0,0,0,1.17523-1.68315c-.27392-1.28824-2.34-.53574-2.59906-1.75388a.76549.76549,0,0,1,.6447-.95044c.5418-.1151.83806.24195,1.0402.69222l.20355-.0765-.29958-.96959"
          style="fill:#ddd"/>
    <path d="M56.11418,1.21952a9.24494,9.24494,0,0,0-.96071.05747A1.301,1.301,0,0,0,53.969,2.68482q.00494.05722.0149.11386c.34427,1.62012,2.39974.81656,2.63159,1.90718a.83.83,0,0,1-.7561,1.02072,1.19464,1.19464,0,0,1-.99871-.21431,2.8657,2.8657,0,0,1-.38508-.74492l-.19933.09595L54.57136,5.907a2.51871,2.51871,0,0,0,1.37778.05392,1.353,1.353,0,0,0,1.17523-1.68315c-.27392-1.28824-2.34-.53574-2.59906-1.75388a.76549.76549,0,0,1,.6447-.95044c.5418-.1151.83806.24195,1.0402.69222l.20355-.0765Z"
          style="fill:#ddd"/>
    <path d="M58.97341.9918,60.40359.81624l.25252.61283.20056-.02474L60.64379.41889,57.66031.78527l.02714.21994.64777.032.47367,3.8575-.62044.18766.02685.22023L61.5024,4.899l.13015-1.13284-.23288.02853-.172.73721L59.435,4.75214l-.21694-1.76688,1.19724-.14706.17771.48418.194-.024a7.40781,7.40781,0,0,1-.16038-1.30719l-.19437.024-.063.50037-1.19077.1461L58.97341.9918"
          style="fill:#ddd"/>
    <path d="M58.97341.9918,60.40359.81624l.25252.61283.20056-.02474L60.64379.41889,57.66031.78527l.02714.21994.64777.032.47367,3.8575-.62044.18766.02685.22023L61.5024,4.899l.13015-1.13284-.23288.02853-.172.73721L59.435,4.75214l-.21694-1.76688,1.19724-.14706.17771.48418.194-.024a7.40781,7.40781,0,0,1-.16038-1.30719l-.19437.024-.063.50037-1.19077.1461Z"
          style="fill:#ddd"/>
    <path d="M63.73493.419a1.47032,1.47032,0,0,1,.35155-.04512A1.00785,1.00785,0,0,1,65.2146,1.49563c.0157.91254-.3682.95836-1.17.97246-.09767.00157-.20215.00345-.274-.00167L63.73493.419M62.49541,4.49057l.00406.22162,1.94912-.034-.00415-.22163L63.804,4.35681,63.77564,2.7595c.24792-.00424.48241-.01472.69047-.038a21.899,21.899,0,0,0,1.40732,1.795,1.69786,1.69786,0,0,0,.43953.13584l.4975.115.06168-.19684a2.5895,2.5895,0,0,1-.96076-.896l-.86064-1.10659a1.69706,1.69706,0,0,0,.79759-1.35734A1.12558,1.12558,0,0,0,64.55814.12444L62.41981.16179l.004.22142.67341.0993L63.165,4.36807Z"
          style="fill:#ddd;fill-rule:evenodd"/>
    <path d="M63.73493.419a1.47032,1.47032,0,0,1,.35155-.04512A1.00785,1.00785,0,0,1,65.2146,1.49563c.0157.91254-.3682.95836-1.17.97246-.09767.00157-.20215.00345-.274-.00167L63.73493.419M62.49541,4.49057l.00406.22162,1.94912-.034-.00415-.22163L63.804,4.35681,63.77564,2.7595c.24792-.00424.48241-.01472.69047-.038a21.899,21.899,0,0,0,1.40732,1.795,1.69786,1.69786,0,0,0,.43953.13584l.4975.115.06168-.19684a2.5895,2.5895,0,0,1-.96076-.896l-.86064-1.10659a1.69706,1.69706,0,0,0,.79759-1.35734A1.12558,1.12558,0,0,0,64.55814.12444L62.41981.16179l.004.22142.67341.0993L63.165,4.36807Z"
          style="fill:#ddd"/>
    <path d="M63.73493.419a1.47032,1.47032,0,0,1,.35155-.04512A1.00785,1.00785,0,0,1,65.2146,1.49563c.0157.91254-.3682.95836-1.17.97246-.09767.00157-.20215.00345-.274-.00167ZM62.49541,4.49057l.00406.22162,1.94912-.034-.00415-.22163L63.804,4.35681,63.77564,2.7595c.24792-.00424.48241-.01472.69047-.038a21.899,21.899,0,0,0,1.40732,1.795,1.69786,1.69786,0,0,0,.43953.13584l.4975.115.06168-.19684a2.5895,2.5895,0,0,1-.96076-.896l-.86064-1.10659a1.69706,1.69706,0,0,0,.79759-1.35734A1.12558,1.12558,0,0,0,64.55814.12444L62.41981.16179l.004.22142.67341.0993L63.165,4.36807Z"
          style="fill:#ddd"/>
    <path d="M68.86173.421l.6447-.06614L69.522.13376,67.60989,0l-.01556.22122.62961.15508,1.341,4.37517.26688.01855c.4971-1.12881,1.34333-3.04349,1.904-4.148l.46333-.07889.01514-.22089L70.70571.21638,70.69016.4376l.62955.15519-1.423,3.15582L68.86173.421"
          style="fill:#ddd"/>
    <path d="M68.86173.421l.6447-.06612L69.522.13379,67.60989,0l-.01556.22122.62956.15509,1.341,4.37515.26687.01857c.49716-1.12881,1.34345-3.0435,1.90405-4.148l.46333-.07889.01519-.2209L70.70571.2164l-.01555.22122.62955.15517-1.423,3.15584Z"
          style="fill:#ddd"/>
    <polyline
            points="74.721 0.898 74.749 0.678 72.847 0.444 72.819 0.664 73.44 0.852 72.966 4.709 72.319 4.741 72.291 4.961 74.193 5.196 74.221 4.976 73.601 4.788 74.073 0.93 74.721 0.898"
            style="fill:#ddd"/>
    <polygon
            points="74.721 0.898 74.749 0.678 72.847 0.444 72.819 0.664 73.44 0.852 72.966 4.709 72.319 4.741 72.291 4.961 74.193 5.196 74.221 4.976 73.601 4.788 74.073 0.93 74.721 0.898"
            style="fill:#ddd"/>
    <path d="M80.02646,1.87993a8.28543,8.28543,0,0,0-1.68569-.59812,2.21458,2.21458,0,0,0-2.97244,1.75445,2.29138,2.29138,0,0,0,2.0688,2.90616,5.30721,5.30721,0,0,0,1.35778.10222l.64859-.76222-.1325-.16131a1.72416,1.72416,0,0,1-1.73.55182,2.2115,2.2115,0,0,1-1.54813-2.71749q.01009-.03682.02146-.0733A1.61386,1.61386,0,0,1,78.248,1.56207c1.21786.25873,1.44111.8396,1.38143,1.43365l.22333.04728.17365-1.16307"
          style="fill:#ddd"/>
    <path d="M80.02646,1.87993a8.28543,8.28543,0,0,0-1.68569-.59812,2.21458,2.21458,0,0,0-2.97244,1.75445,2.29138,2.29138,0,0,0,2.0688,2.90616,5.30721,5.30721,0,0,0,1.35778.10222l.64859-.76222-.1325-.16131a1.72416,1.72416,0,0,1-1.73.55182,2.2115,2.2115,0,0,1-1.54813-2.71749q.01009-.03682.02146-.0733A1.61386,1.61386,0,0,1,78.248,1.56207c1.21786.25873,1.44111.8396,1.38143,1.43365l.22333.04728Z"
          style="fill:#ddd"/>
    <path d="M82.63667,2.98358l1.36241.46909-.04126.66129.19083.06584.24035-.97907-2.84179-.97851-.072.20968.56815.31272L80.77777,6.41908l-.64008-.10318-.072.20957,3.13157,1.07836.61363-.961-.222-.07667-.47813.58716-1.70715-.588.579-1.68315,1.14061.39279-.05235.513.185.06356a7.39133,7.39133,0,0,1,.42855-1.24538l-.185-.06368-.27634.42189-1.134-.3903.54745-1.59055"
          style="fill:#ddd"/>
    <path d="M82.63667,2.98358l1.36241.46909-.04126.66129.19083.06584.24035-.97907-2.84179-.97851-.072.20968.56815.31272L80.77777,6.41908l-.64008-.10318-.072.20957,3.13157,1.07836.61363-.961-.222-.07667-.47813.58716-1.70715-.588.579-1.68315,1.14061.39279-.05235.513.185.06356a7.39133,7.39133,0,0,1,.42855-1.24538l-.185-.06368-.27634.42189-1.134-.3903Z"
          style="fill:#ddd"/>
    <path d="M88.409,4.86281a9.21749,9.21749,0,0,0-.81171-.518,1.30028,1.30028,0,0,0-1.78495.44206q-.02981.04944-.05514.10137c-.67392,1.513,1.46086,2.07111,1.00755,3.08988a.82983.82983,0,0,1-1.2116.38111c-.256-.1141-.6621-.4519-.68169-.76041A2.85722,2.85722,0,0,1,84.99778,6.77l-.21813-.03979L84.4052,7.74808a2.5179,2.5179,0,0,0,1.08305.85348,1.35271,1.35271,0,0,0,1.94-.67087c.53595-1.20333-1.57817-1.80889-1.072-2.94667a.76553.76553,0,0,1,1.08039-.38992c.50606.22527.53556.68833.43451,1.17137l.20985.05764.3279-.96032"
          style="fill:#ddd"/>
    <path d="M88.409,4.86281a9.21749,9.21749,0,0,0-.81171-.518,1.30028,1.30028,0,0,0-1.78495.44206q-.02981.04944-.05514.10137c-.67392,1.513,1.46086,2.07111,1.00755,3.08988a.82983.82983,0,0,1-1.2116.38111c-.256-.1141-.6621-.4519-.68169-.76041A2.85722,2.85722,0,0,1,84.99778,6.77l-.21813-.03979L84.4052,7.74808a2.5179,2.5179,0,0,0,1.08305.85348,1.35271,1.35271,0,0,0,1.94-.67087c.53595-1.20333-1.57817-1.80889-1.072-2.94667a.76553.76553,0,0,1,1.08039-.38992c.50606.22527.53556.68833.43451,1.17137l.20985.05764Z"
          style="fill:#ddd"/>
    <path d="M90.53545,8.55022a.57.57,0,1,0-.00234.00459l.00234-.00459" style="fill:#ddd"/>
    <path d="M90.53545,8.55022a.57.57,0,1,0-.00234.00459Z" style="fill:#ddd"/>
    <path d="M97.67153,10.43657l.12052-.18577-1.509-.97969-.12069.18566.47549.44077-1.21808,1.87569c-.19144.29536-.50435.77667-.88444.89526a1.55405,1.55405,0,0,1-1.25022-.20572c-.83615-.54314-.81087-1.28874-.26541-2.09268L94.30889,8.385l.59617.255.12068-.186L93.41815,7.41l-.12075.18607.47538.441-1.42026,2.18727a1.6564,1.6564,0,0,0,.69361,2.51091,1.83848,1.83848,0,0,0,2.8397-.72159l1.18931-1.83206.5964.255"
          style="fill:#ddd"/>
    <path d="M97.67153,10.43657l.12052-.18577-1.509-.97969-.12069.18566.47549.44077-1.21808,1.87569c-.19144.29536-.50435.77667-.88444.89526a1.55405,1.55405,0,0,1-1.25022-.20572c-.83615-.54314-.81087-1.28874-.26541-2.09268L94.30889,8.385l.59617.255.12068-.186L93.41815,7.41l-.12075.18607.47538.441-1.42026,2.18727a1.6564,1.6564,0,0,0,.69361,2.51091,1.83848,1.83848,0,0,0,2.8397-.72159l1.18931-1.83206Z"
          style="fill:#ddd"/>
    <path d="M100.76511,12.81194a9.22016,9.22016,0,0,0-.63659-.72158,1.30048,1.30048,0,0,0-1.83794-.06718q-.04235.03936-.08107.08236c-1.065,1.2688.83377,2.39375.11667,3.24778a.82983.82983,0,0,1-1.26963.03261,1.19412,1.19412,0,0,1-.44577-.919,2.86783,2.86783,0,0,1,.34973-.76189l-.19815-.09842-.64081.87521a2.5131,2.5131,0,0,0,.8058,1.11889,1.353,1.353,0,0,0,2.04983-.11c.84667-1.00889-1.01836-2.17389-.21818-3.12778a.765.765,0,0,1,1.14545-.07729c.42461.35615.3257.80936.09524,1.24587l.186.11333.5794-.83288"
          style="fill:#ddd"/>
    <path d="M100.76511,12.81194a9.22016,9.22016,0,0,0-.63659-.72158,1.30048,1.30048,0,0,0-1.83794-.06718q-.04235.03936-.08107.08236c-1.065,1.2688.83377,2.39375.11667,3.24778a.82983.82983,0,0,1-1.26963.03261,1.19412,1.19412,0,0,1-.44577-.919,2.86783,2.86783,0,0,1,.34973-.76189l-.19815-.09842-.64081.87521a2.5131,2.5131,0,0,0,.8058,1.11889,1.353,1.353,0,0,0,2.04983-.11c.84667-1.00889-1.01836-2.17389-.21818-3.12778a.765.765,0,0,1,1.14545-.07729c.42461.35615.3257.80936.09524,1.24587l.186.11333Z"
          style="fill:#ddd"/>
    <path d="M102.09965,17.95889l-.56262,1.35545-.52987-.37325-.15695.15659,1.332,1.33252.15688-.15689-.31359-.47024,1.78475-4.31968-.23535-.23556L99.31985,17.097l-.47048-.31363-.15683.15685,1.15273,1.1525.15687-.15674-.3736-.53011,1.3002-.618,1.17091,1.171m.86223-2.07913-.72842,1.7518-.98215-.98181Z"
          style="fill:#ddd;fill-rule:evenodd"/>
    <path d="M102.09965,17.95889l-.56262,1.35545-.52987-.37325-.15695.15659,1.332,1.33252.15688-.15689-.31359-.47024,1.78475-4.31968-.23535-.23556L99.31985,17.097l-.47048-.31363-.15683.15685,1.15273,1.1525.15687-.15674-.3736-.53011,1.3002-.618,1.17091,1.171m.86223-2.07913-.72842,1.7518-.98215-.98181Z"
          style="fill:#ddd"/>
    <path d="M102.09965,17.95889l-.56262,1.35545-.52987-.37325-.15695.15659,1.332,1.33252.15688-.15689-.31359-.47024,1.78475-4.31968-.23535-.23556L99.31985,17.097l-.47048-.31363-.15683.15685,1.15273,1.1525.15687-.15674-.3736-.53011,1.3002-.618Zm.86223-2.07913-.72842,1.7518-.98215-.98181Z"
          style="fill:#ddd"/>
    <path d="M110.69444,17.88667c.70594,3.71142-2.18628,6.53289-4.98613,8.725L96.014,34.08972S77.99914,47.92958,77.18,48.90828h0c-2.76366,2.83945-3.26889,10.89932-5.263,16.20342-1.78966,3.7943-3.85277,4.35915-11.07,4.22048H52.39037c-.91838-.01315-1.35717.128-1.88985,1.23929l-.88-.059c-.16644-2.36821.40111-4.45762,2.52-5.63444a8.6239,8.6239,0,0,1,3.47112-.34067c3.57777,0,6.15838,0,9.85933.00627a2.2329,2.2329,0,0,0,2.1529-1.23223c1.74514-6.78618,1.62017-14.583,7.89389-19.25031L95.32157,28.68878c4.48711-3.933,11.38431-7.36742,12.74126-13.572a3.589,3.589,0,0,1,2.63161,2.76993"
          style="fill:#ddd"/>
    <path d="M110.69444,17.88667c.70594,3.71142-2.18628,6.53289-4.98613,8.725L96.014,34.08972S77.99914,47.92958,77.18,48.90828h0c-2.76366,2.83945-3.26889,10.89932-5.263,16.20342-1.78966,3.7943-3.85277,4.35915-11.07,4.22048H52.39037c-.91838-.01315-1.35717.128-1.88985,1.23929l-.88-.059c-.16644-2.36821.40111-4.45762,2.52-5.63444a8.6239,8.6239,0,0,1,3.47112-.34067c3.57777,0,6.15838,0,9.85933.00627a2.2329,2.2329,0,0,0,2.1529-1.23223c1.74514-6.78618,1.62017-14.583,7.89389-19.25031L95.32157,28.68878c4.48711-3.933,11.38431-7.36742,12.74126-13.572A3.589,3.589,0,0,1,110.69444,17.88667Z"
          style="fill:#ddd"/>
    <path d="M117.16955,25.47087c.80827,2.87281-2.57362,5.35039-4.84743,7.33972l-12.04865,9.55556L85.59362,53.99948c-2.48186,2.219-2.45129,5.92718-3.04667,9.14046-.04143,1.13578,1.43721,1.90766.70334,3.154-1.28118,2.164-2.753,3.08086-2.00817,4.083.58024.781,3.92937-.03214,2.49277,2.52952-.24222,1.35049,2.61382.12151,1.125,1.229-.46744.84829.10234,1.248.71,1.29889.84807.34591-.58875,1.86925.16189,2.93912,2.33061,2.89426,10.5579-1.213,11.07967,3.878.29556,5.634-11.41038,5.09809-8.45917,12.36323a4.19733,4.19733,0,0,0,3.61179,2.17778,10.78,10.78,0,0,0,2.32408-.23977l.26333.57053a10.4505,10.4505,0,0,1-1.38611,1.0349c-2.105,1.3157-5.97526,2.66861-8.38208,1.07917a5.52016,5.52016,0,0,1-2.37469-4.5223c.18013-4.76371,5.78871-5.3314,8.03221-9.00136a2.28307,2.28307,0,0,0-.1383-2.35445C88.571,80.894,85.235,81.48778,82.40865,81.55874a2.15723,2.15723,0,0,1-2.35445-1.80052c-.13809-1.24434.54743-1.90059.11438-2.45452-.43282-.45023-1.1794-.40777-1.36077-1.00741-.093-.3085-.00647-.49895.37378-.89666,1.09823-.69708-2.11141-.17347-.98634-1.83509a.94876.94876,0,0,0,.33556-1.00762c-.66474-1.24616-2.64382.0004-3.10111-1.45338-.34495-1.7528,4.61022-4.16287,1.961-6.96635.01052-.08712-.06124-.23753-.06248-.33236a40.56083,40.56083,0,0,1,2.72589-10.77457c.835-1.76534,2.89424-3.10223,4.43188-4.432l24.37419-19.11156c2.49255-2.00794,5.13732-3.96069,5.53946-7.20125a4.269,4.269,0,0,1,2.76991,3.18537"
          style="fill:#ddd"/>
    <path d="M117.16955,25.47087c.80827,2.87281-2.57362,5.35039-4.84743,7.33972l-12.04865,9.55556L85.59362,53.99948c-2.48186,2.219-2.45129,5.92718-3.04667,9.14046-.04143,1.13578,1.43721,1.90766.70334,3.154-1.28118,2.164-2.753,3.08086-2.00817,4.083.58024.781,3.92937-.03214,2.49277,2.52952-.24222,1.35049,2.61382.12151,1.125,1.229-.46744.84829.10234,1.248.71,1.29889.84807.34591-.58875,1.86925.16189,2.93912,2.33061,2.89426,10.5579-1.213,11.07967,3.878.29556,5.634-11.41038,5.09809-8.45917,12.36323a4.19733,4.19733,0,0,0,3.61179,2.17778,10.78,10.78,0,0,0,2.32408-.23977l.26333.57053a10.4505,10.4505,0,0,1-1.38611,1.0349c-2.105,1.3157-5.97526,2.66861-8.38208,1.07917a5.52016,5.52016,0,0,1-2.37469-4.5223c.18013-4.76371,5.78871-5.3314,8.03221-9.00136a2.28307,2.28307,0,0,0-.1383-2.35445C88.571,80.894,85.235,81.48778,82.40865,81.55874a2.15723,2.15723,0,0,1-2.35445-1.80052c-.13809-1.24434.54743-1.90059.11438-2.45452-.43282-.45023-1.1794-.40777-1.36077-1.00741-.093-.3085-.00647-.49895.37378-.89666,1.09823-.69708-2.11141-.17347-.98634-1.83509a.94876.94876,0,0,0,.33556-1.00762c-.66474-1.24616-2.64382.0004-3.10111-1.45338-.34495-1.7528,4.61022-4.16287,1.961-6.96635.01052-.08712-.06124-.23753-.06248-.33236a40.56083,40.56083,0,0,1,2.72589-10.77457c.835-1.76534,2.89424-3.10223,4.43188-4.432l24.37419-19.11156c2.49255-2.00794,5.13732-3.96069,5.53946-7.20125A4.269,4.269,0,0,1,117.16955,25.47087Z"
          style="fill:#ddd"/>
    <path d="M113.153,38.62719c.51253,1.75867.38334,4.27041-1.14811,5.68439l-2.42777,2.07283L93.4875,58.985c-1.62022,1.64826-1.67539,4.18222-1.21808,6.35677.859,1.37071-1.51929,2.92843-.4438,3.61458.37422.17994,1.04246-.01373,1.29188.47086.45.62289-.43288,1.29812.37,1.60667a1.77509,1.77509,0,0,0,.70333-.014c.67549.06894-.82967.7357-.03512,1.393,2.59726.28585-.39769,3.45363,3.34789,2.63688,3.68413-.83093,7.27121-2.742,11.35667-1.80031,3.60025.69243,6.77144,2.82509,10.80148,2.07707l.49271-.1312c.01334.094-.21537.40858-.21537.40858-2.484,3.25169-5.50946,5.54205-10.21453,4.38445-3.07476-.75976-5.91587-4.69841-10.83565-3.27676-2.50566.72417-6.486,1.44778-8.171.41587-1.2876-.86247-.15829-1.95073-.526-2.85281-.2604-.63947-.69041-.10432-.98678-.64066-.2523-.45772.70982-.84832.17343-1.09112-.27717-.08653-.73527-.11322-.88286-.25311-.62325-.56022.91726-1.73744-.71-1.97986-.76156-.16881-1.78678-.24643-1.88687-.81372-.50217-1.03814,2.75093-2.55925,1.21831-5.11-.37017-.60246.1302-4.98,1.80856-7.458a17.3491,17.3491,0,0,1,4.07956-3.61195l17.10139-13.30435a7.34007,7.34007,0,0,0,2.21555-2.35406c.32223-.637.767.75933.83091.96939"
          style="fill:#ddd"/>
    <path d="M113.153,38.6272c.51253,1.75867.38334,4.2704-1.14811,5.68438l-2.42777,2.07284L93.4875,58.985c-1.62022,1.64828-1.67539,4.18222-1.21808,6.3568.859,1.37068-1.51929,2.92841-.44374,3.61455.37422.18,1.0424-.01373,1.29188.47086.45.62289-.43288,1.29812.36994,1.60667a1.77547,1.77547,0,0,0,.70333-.014c.67544.069-.82973.73571-.03518,1.393,2.59726.28585-.39769,3.45363,3.34789,2.63688,3.68413-.83093,7.27121-2.742,11.35667-1.80031,3.6002.69243,6.77144,2.82509,10.80143,2.07707l.49271-.1312c.01334.094-.21531.40858-.21531.40858-2.48405,3.25169-5.50952,5.54205-10.21459,4.38445-3.07476-.75976-5.91587-4.69841-10.83565-3.27676-2.50566.72417-6.486,1.44778-8.171.41587-1.28766-.86247-.15835-1.95073-.52609-2.85281-.2604-.63947-.69041-.10432-.98678-.64066-.2523-.45772.70982-.84832.17349-1.09112-.27717-.08653-.73533-.11322-.88286-.25311-.62333-.56021.9172-1.73744-.71-1.97986-.76156-.1688-1.78678-.24643-1.88681-.81372-.50223-1.03814,2.75088-2.55925,1.21824-5.11-.37017-.60246.1302-4.98,1.80863-7.458a17.34837,17.34837,0,0,1,4.07956-3.61193l17.10138-13.30436a7.33986,7.33986,0,0,0,2.21555-2.35406C112.64439,37.02076,113.08914,38.41713,113.153,38.6272Z"
          style="fill:#ddd"/>
    <path d="M62.77079,75.67667a120.52237,120.52237,0,0,1,19.63789,9.34465,3.259,3.259,0,0,1,1.24616,3.73931c-1.71726,3.93279-8.84936,5.29034-6.64732,10.80187a5.53057,5.53057,0,0,0,4.70828,3.60063,4.38415,4.38415,0,0,0,1.82984-.30992l.52223.742a15.04,15.04,0,0,1-2.04454,1.53563,8.12428,8.12428,0,0,1-5.98539,1.21786,6.75683,6.75683,0,0,1-4.15477-2.7697,5.66778,5.66778,0,0,1-.277-5.40136c1.59286-3.116,6.17555-4.88844,6.64778-7.47843.23068-1.43377-1.191-2.71411-2.35445-3.46213A126.8316,126.8316,0,0,0,47.64759,75.465c-1.2357-.34222-3.17469-.96575-4.52539.85478l-.657-.50462a4.86414,4.86414,0,0,1,2.52751-4.05084c2.683-1.212,6.40488.17265,8.47149.7927l9.30667,3.11965"
          style="fill:#ddd"/>
    <path d="M62.77079,75.67667a120.52237,120.52237,0,0,1,19.63789,9.34465,3.259,3.259,0,0,1,1.24616,3.73931c-1.71726,3.93279-8.84936,5.29034-6.64732,10.80187a5.53057,5.53057,0,0,0,4.70828,3.60063,4.38415,4.38415,0,0,0,1.82984-.30992l.52223.742a15.04,15.04,0,0,1-2.04454,1.53563,8.12428,8.12428,0,0,1-5.98539,1.21786,6.75683,6.75683,0,0,1-4.15477-2.7697,5.66778,5.66778,0,0,1-.277-5.40136c1.59286-3.116,6.17555-4.88844,6.64778-7.47843.23068-1.43377-1.191-2.71411-2.35445-3.46213A126.8316,126.8316,0,0,0,47.64759,75.465c-1.2357-.34222-3.17469-.96575-4.52539.85478l-.657-.50462a4.86414,4.86414,0,0,1,2.52751-4.05084c2.683-1.212,6.40488.17265,8.47149.7927Z"
          style="fill:#ddd"/>
    <rect x="0.59206" y="94.44444" width="132.22222" height="25.55556" rx="1.02911" style="fill:#3a569b"/>
    <path d="M20.7852,107.5293c0,5.15624-3.13368,7.89062-6.95747,7.89062-3.95615,0-6.735-3.06749-6.735-7.602,0-4.75641,2.95681-7.86839,6.95747-7.86839C18.1398,99.94954,20.7852,103.08377,20.7852,107.5293Zm-11.62543.24413c0,3.20095,1.73394,6.06826,4.77973,6.06826,3.06641,0,4.80035-2.82281,4.80035-6.22341,0-2.97852-1.556-6.0905-4.77865-6.0905C10.76024,101.52778,9.15977,104.484,9.15977,107.77343Z"
          style="fill:#fff"/>
    <path d="M28.18321,100.37222a22.39284,22.39284,0,0,1,3.712-.28916,6.15572,6.15572,0,0,1,4.20033,1.24451,4.02823,4.02823,0,0,1,1.31184,3.13423,4.41272,4.41272,0,0,1-1.15556,3.201,6.21,6.21,0,0,1-4.579,1.64445,6.65191,6.65191,0,0,1-1.556-.13345v6.00151H28.18321Zm1.93359,7.22386a6.48469,6.48469,0,0,0,1.60048.15516c2.334,0,3.75651-1.13333,3.75651-3.20042,0-1.97808-1.40083-2.934-3.53407-2.934a8.107,8.107,0,0,0-1.82292.1557Z"
          style="fill:#fff"/>
    <path d="M52.65043,108.15159H46.82687v5.40094h6.4898v1.62271H44.89333v-14.981h8.09023v1.62272H46.82689v4.73418h5.82357Z"
          style="fill:#fff"/>
    <path d="M60.71576,115.17523v-14.981H62.8273l4.80036,7.57921a42.22317,42.22317,0,0,1,2.68988,4.86816l.04444-.02222c-.17794-2.00086-.22243-3.82324-.22243-6.15722v-6.26793h1.82291v14.981H70.00612l-4.75585-7.60145a47.47,47.47,0,0,1-2.80057-5.00111l-.06728.02222c.11176,1.8891.15625,3.68978.15625,6.17889v6.40137Z"
          style="fill:#fff"/>
    <path d="M92.31732,115.17523l-4.89041-14.981h2.08876l2.334,7.37956c.64453,2.02257,1.20009,3.84495,1.60048,5.60112h.04444c.4221-1.73394,1.04493-3.623,1.71112-5.57889l2.53472-7.40181h2.06713l-5.357,14.981Z"
          style="fill:#fff"/>
    <path d="M108.25048,100.19422v14.981h-1.93359v-14.981Z" style="fill:#fff"/>
    <path d="M115.49444,114.04189l8.31273-12.15821V101.817h-7.602v-1.62273H126.318v1.17784l-8.26824,12.11373v.06673h8.38v1.62271H115.49444Z"
          style="fill:#fff"/>
    <path d="M30.50239,75.13223a25.77786,25.77786,0,0,1-10.62445,1.91018C8.53562,77.04241,0,69.87938,0,56.68679,0,44.09171,8.53562,35.55556,21.01141,35.55556a21.57045,21.57045,0,0,1,9.55144,1.79089l-1.25439,4.23812a18.91436,18.91436,0,0,0-8.11785-1.67112c-9.4316,0-15.69918,6.029-15.69918,16.59464,0,9.84937,5.67062,16.17686,15.46062,16.17686a20.78529,20.78529,0,0,0,8.47624-1.6716Z"
          style="fill:#3a569b"/>
    <path d="M70.13844,55.91117c0,13.84889-8.41687,21.19111-18.684,21.19111-10.62555,0-18.087-8.23768-18.087-20.41556,0-12.77421,7.93864-21.13116,18.684-21.13116C63.03424,35.55556,70.13844,43.97242,70.13844,55.91117Zm-31.22026.65634c0,8.59607,4.65589,16.29614,12.83419,16.29614,8.23767,0,12.89356-7.58079,12.89356-16.71391,0-7.99857-4.17874-16.35606-12.83419-16.35606C43.21676,39.79368,38.91818,47.73287,38.91818,56.56751Z"
          style="fill:#3a569b"/>
    <path d="M85.71778,76.44545l-13.13319-40.233h5.61124l6.26759,19.818C86.195,61.46251,87.68676,66.35751,88.762,71.07331h.11875c1.13456-4.65643,2.80563-9.73009,4.59651-14.98294l6.80517-19.87794h5.55188l-14.38653,40.233Z"
          style="fill:#3a569b"/>
    <path d="M131.02339,57.58222H115.38358V72.088h17.4307v4.35742h-22.6231v-40.233h21.7282v4.35741h-16.5358v12.7149h15.63981Z"
          style="fill:#3a569b"/>
</svg>
